# xmcd
#
# Track frame offsets:
#	150
#	27938
#	58083
#	72850
#	95518
#	122265
#	157363
#	179923
#	267388
#
# Disc length: 4086 seconds
#
# Revision: 0
# Processed by: cddbd v1.4PL0 Copyright (c) Steve Scherf et al.
# Submitted via: EasyCDDAExtractor 4.6.9.1
#
DISCID=840ff409
DTITLE=Grateful dead - Grateful new year-bootleg(CD1)
DYEAR=1900
DGENRE=Country
TTITLE0=hell in a bucket
TTITLE1=candy man
TTITLE2=beat it on down the line
TTITLE3=must of been the roses
TTITLE4=black throated wind
TTITLE5=west L.A. fade away
TTITLE6=masterpiece
TTITLE7=medley:help on the way/slip knot/Franklin´s tower
TTITLE8=not fade away
EXTD=
EXTT0=
EXTT1=
EXTT2=
EXTT3=
EXTT4=
EXTT5=
EXTT6=
EXTT7=
EXTT8=
PLAYORDER=
